<svg xmlns:xlink="http://www.w3.org/1999/xlink" xmlns="http://www.w3.org/2000/svg" viewBox="0 0 340 100" preserveAspectRatio="xMidYMid meet" class="css-grg60t" id="abgfggea" width="340" height="78"><defs id="SvgjsDefs1013"></defs><g id="SvgjsG1014" featurekey="symbolContainer" transform="matrix(1,0,0,1,0,0)" fill="#111111"><rect xmlns="http://www.w3.org/2000/svg" width="120" height="78" rx="10" ry="10" fill="#111111"></rect></g><g id="SvgjsG1015" featurekey="uHI19F-0" transform="matrix(0.8885838178454697,0,0,0.8885838178454697,15.39538902066263,-6.26628126024848)" fill="#FCFCFC"><path xmlns="http://www.w3.org/2000/svg" d="M25.2,67.5l0.4,0.5l0.6-0.1c0.4-0.1,10.1-2.1,17.5-5.1c7.3-3,15-3.6,17.2-3.7c0.5,0,1-0.2,1.4-0.4c1.3-0.8,6.2-3.2,14.7-2.8  c4.7,0.2,14.8-0.1,16.2-0.2c0.4,0,0.7-0.2,0.9-0.6c0.2-0.3,0.2-0.7,0-1.1l-1.3-2.2c-0.1-0.1-0.1-0.3-0.3-0.4L70.5,30l-0.4,0  c-0.1,0-9.8,0.1-16.9-0.4c-8.4-0.5-11.4,3.8-12.1,4.8c-1.6-0.9-9.6-4.8-19-0.6C16.3,36.4,9.9,37.1,9.1,37c0,0-1.3-0.3-1.3,1.2  c0,0.5,0,3.5,0,5.5v0.3L8,44.2C9.4,46.3,24.6,66.7,25.2,67.5z M43,61c-6.2,2.5-14.3,4.4-16.5,4.9c-2.3-3.1-14.6-19.7-16.6-22.5  c0-0.7,0-1.5,0-2.3l16.6,22.6l0.4,0c0.1,0,0.7,0.1,1.8,0.1c3,0,9.4-0.5,15.7-4.1c5-2.9,9.6-2.9,13.4-2.2C54.2,57.8,48.5,58.8,43,61z   M77,54c-7.5-0.4-12.5,1.5-14.8,2.6c0,0,0,0,0-0.1c0.1-0.8,0.7-1.4,1.2-1.8c1.8-1.5,6.3-3.1,12.9-2.3c4.6,0.5,12.9,1,15.1,1.1  l0.2,0.4C88.4,54,80.8,54.2,77,54z M42.7,35.6c0,0,2.3-4.5,10.3-4c6.4,0.4,14.8,0.4,16.7,0.4l19.9,19.4c-3.4-0.2-9.4-0.6-13.1-1  c-6-0.7-11.5,0.4-14.4,2.7c-0.6,0.5-1.1,1.1-1.4,1.6c-9.7-9.3-16.6-17.1-18.2-18.9L42.7,35.6z M22.8,35.6c8.7-3.8,16.3,0,17.4,0.6  c1,1.2,8.7,9.9,18.6,19.4c-4.3-0.9-9.7-1.1-15.5,2.3c-6.8,4-14.1,3.9-15.9,3.8L10.6,38.8C13.4,38.6,18.4,37.6,22.8,35.6z" fill="#FCFCFC"></path><path xmlns="http://www.w3.org/2000/svg" d="M94.1,56.6l-29.7,1.7c-0.6,0-1.1,0.4-1.3,1c-0.3,0.8-1,1.4-1.7,1.6C61,61,60.2,61,59.5,60.3c-0.5-0.5-1.2-0.7-1.9-0.5  L24.3,69.9L7,44.9c-0.3-0.4-0.9-0.6-1.4-0.2C5.2,45,5,45.6,5.4,46l18.2,26.1l34.6-10.5c1,1,2.4,1.5,3.7,1.2c1.3-0.3,2.5-1.3,3-2.6  l29.4-1.7c0.5,0,1-0.5,0.9-1C95.2,57,94.7,56.6,94.1,56.6z" fill="#FCFCFC"></path></g><g id="SvgjsG1016" featurekey="8FbbNb-0" transform="matrix(4.7014573506273445,0,0,4.7014573506273445,137.36718751541258,-33.33098030902455)" fill="#111111"><path d="M4.56 10.28 c0.72 0 1.3633 0.13338 1.93 0.40004 s1.0033 0.65332 1.31 1.16 l-1.4 1.06 c-0.53334 -0.62666 -1.18 -0.94 -1.94 -0.94 c-0.45334 0 -0.83 0.1 -1.13 0.3 s-0.45 0.45334 -0.45 0.76 c0 0.66666 0.62 1.12 1.86 1.36 c1.2133 0.22666 2.07 0.56 2.57 1 s0.75 1.0667 0.75 1.88 c0 0.92 -0.35 1.6433 -1.05 2.17 s-1.6367 0.79666 -2.81 0.81 c-0.88 0 -1.6033 -0.13666 -2.17 -0.41 s-1.0567 -0.69668 -1.47 -1.27 l1.36 -1.12 c0.72 0.74666 1.4867 1.12 2.3 1.12 c0.53334 0 0.98668 -0.10666 1.36 -0.32 s0.56 -0.50668 0.56 -0.88002 c0 -0.65334 -0.6 -1.1067 -1.8 -1.36 c-1.3333 -0.26666 -2.23 -0.62332 -2.69 -1.07 s-0.69 -1.0233 -0.69 -1.73 c0 -0.88 0.34 -1.5833 1.02 -2.11 s1.54 -0.79666 2.58 -0.81 z M15 10.28 c1.3733 0 2.36 0.58666 2.96 1.76 c0.30666 -0.56 0.72666 -0.99334 1.26 -1.3 s1.1133 -0.46 1.74 -0.46 c2.3866 0 3.5866 1.3733 3.6 4.12 l0 5.6 l-1.8 0 l0 -5.38 c0 -0.93334 -0.16666 -1.61 -0.5 -2.03 s-0.84668 -0.63 -1.54 -0.63 c-0.81334 0 -1.42 0.24666 -1.82 0.74 s-0.6 1.1733 -0.6 2.04 l0 5.26 l-1.8 0 l0 -5.1 c0 -1.12 -0.16 -1.89 -0.48 -2.31 s-0.82666 -0.63 -1.52 -0.63 c-0.74666 0 -1.3433 0.28666 -1.79 0.86 s-0.67 1.3 -0.67 2.18 l0 5 l-1.8 0 l0 -9.48 l1.68 0 l0 1.48 l0.04 0 c0.2 -0.46666 0.59666 -0.87 1.19 -1.21 s1.21 -0.51 1.85 -0.51 z M31.96 10.28 c0.33334 0 0.6 0.04 0.8 0.12 l-0.08 1.94 c-0.34666 -0.09334 -0.64666 -0.14 -0.9 -0.14 c-1.7733 0 -2.6734 0.98666 -2.7 2.96 l0 4.84 l-1.8 0 l0 -9.48 l1.8 0 l0 1.46 l0.04 0 c0.24 -0.50666 0.62666 -0.91666 1.16 -1.23 s1.0933 -0.47 1.68 -0.47 z M35.62 10.52 l2.82 7.4 l0.04 0 l2.68 -7.4 l1.94 0 l-4.48 11.48 c-0.41334 1.1067 -0.86668 1.85 -1.36 2.23 s-1.1267 0.57 -1.9 0.57 c-0.65334 0 -1.1867 -0.08666 -1.6 -0.26 l0.22 -1.62 c0.37334 0.13334 0.73334 0.2 1.08 0.2 c0.56 0 0.96334 -0.13666 1.21 -0.41 s0.46332 -0.66334 0.64998 -1.17 l0.56 -1.48 l-3.94 -9.54 l2.08 0 z" fill="#111111"></path></g></svg>